<?xml version="1.0" encoding="UTF-8"?>
<svg xmlns="http://www.w3.org/2000/svg" viewBox="0 0 485.62 236.02">
  <defs>
    <style>
      .cls-1 {
        fill: #00a84b;
      }

      .cls-2 {
        fill: #0078c0;
      }

      .cls-3 {
        fill: #007ca8;
      }

      .cls-4 {
        fill: #ffc808;
      }

      .cls-5 {
        fill: #c19c5a;
      }

      .cls-6 {
        fill: #df1f26;
      }

      .cls-7 {
        fill: #231f20;
      }
    </style>
  </defs>
  <g id="Layer_1" data-name="Layer 1">
    <g>
      <path class="cls-6" d="m67.04,70.17V6.54c16.16,0,31.68,6.71,43.11,18.64,11.43,11.93,17.86,28.12,17.86,44.99h-60.97Z"/>
      <path class="cls-1" d="m67.2,69.35v63.04c-16.01,0-31.39-6.65-42.71-18.46-11.32-11.82-17.69-27.86-17.69-44.58h60.4Z"/>
      <path class="cls-4" d="m67.2,69.91h60.89c0,16.85-6.42,33.02-17.83,44.94-11.41,11.91-26.91,18.61-43.06,18.61v-63.55Z"/>
      <path class="cls-2" d="m67.2,69.91H6.19c0-16.88,6.43-33.09,17.87-45.02,11.44-11.94,26.96-18.65,43.14-18.65v63.67Z"/>
    </g>
    <g>
      <path class="cls-7" d="m117.69,17.51C106.3,5.84,90.19,0,69.34,0S30.64,6.27,18.38,18.81C6.13,31.36,0,48.34,0,69.76s5.68,37.02,17.03,49.04c11.36,12.01,27.27,18.05,47.75,18.12,3.13,0,6.5-.26,6.5-.26s3.27-.22,6.17-.58c15.63-1.95,27.18-9.09,27.18-9.09,1.46-.91,8.07-5.08,14.33-12.47,10.54-12.45,15.82-28.79,15.82-49.04s-5.7-36.29-17.08-47.97Zm-14.45,97.19c-7.42,9.78-18.92,14.67-34.51,14.67s-27.85-5.39-36.04-16.16c-8.2-10.77-12.29-26.28-12.29-46.52s3.62-34.69,10.85-44.47c7.23-9.78,18.83-14.67,34.79-14.67s28.62,5.28,36.51,15.83c7.89,10.56,11.83,25.64,11.83,45.26,0,20.92-3.71,36.28-11.13,46.06Z"/>
      <path class="cls-7" d="m218.3,125.27c-9.7,7.2-19.4,10.8-29.11,10.8s-17.08-2.48-21.95-7.45c-4.89-4.97-7.33-11.95-7.33-20.96v-19.75c0-13.29-.12-23.25-.37-29.9l-12.39-3.35-.47-3.17c10.88-1.99,20.97-4.16,30.27-6.52l.84.65c-.37,7.26-.56,16.61-.56,28.03v29.62c0,7.51,1.77,12.96,5.29,16.35,3.54,3.38,8.52,5.08,14.96,5.08s13.04-1.71,19.79-5.12v-39.68c0-8.69-.12-15.99-.37-21.89l-12.29-3.35-.47-3.17c10.82-1.99,20.88-4.16,30.18-6.52l.84.65c-.37,7.45-.56,16.98-.56,28.59,0,22.54.06,36.29.19,41.26.06,2.55.25,4.59.56,6.15s.9,2.75,1.77,3.59,2.16,1.43,3.87,1.77,3.99.54,6.85.61l.47,3.63c-2.86,1.12-6.15,2.19-9.87,3.21s-6.27,1.54-7.64,1.54c-6.29,0-10.45-3.57-12.5-10.71Z"/>
      <path class="cls-7" d="m337.53,126.85c-5.28,3.29-10.71,5.65-16.3,7.08s-10.77,2.14-15.55,2.14c-13.66,0-24.7-3.9-33.11-11.69-8.41-7.79-12.62-18.61-12.62-32.46s3.93-25.05,11.77-33.81c7.85-8.75,18.35-13.13,31.48-13.13,11.01,0,19.57,3.28,25.71,9.83,6.13,6.55,9.19,15.6,9.19,27.15,0,1.74-.09,3.51-.28,5.31h-58.77c0,13.35,3.14,22.9,9.41,28.64,6.27,5.74,16.08,8.62,29.43,8.62,5.96,0,12.33-.56,19.09-1.68l.56,4Zm-18.53-47.31v-2.79c0-8.82-1.38-15.12-4.14-18.91-2.78-3.79-6.89-5.68-12.37-5.68-7.23,0-12.76,2.67-16.59,8.01-3.83,5.34-5.99,11.8-6.47,19.37h39.58Z"/>
      <path class="cls-7" d="m397.23,54.39c-3.6-.99-7.51-1.49-11.74-1.49-5.84,0-10.54,1.13-14.11,3.4-3.57,2.27-5.36,5.36-5.36,9.27s1.16,6.77,3.49,8.94,6.66,4.32,12.99,6.43l7.64,2.61c8.57,2.92,14.86,6.26,18.86,10.01,4,3.76,6.01,8.68,6.01,14.76,0,8.63-3.35,15.41-10.06,20.35-6.71,4.94-15.18,7.4-25.43,7.4-9.44,0-19.09-1.92-28.97-5.77,2.11-8.07,3.82-15.96,5.12-23.66l3.63-.56,6.71,20.02c3.54,1.37,8.04,2.05,13.5,2.05,5.77,0,10.38-1.18,13.83-3.54s5.17-5.68,5.17-9.97c0-3.97-1.16-7.11-3.49-9.41s-6.04-4.28-11.13-5.96l-9.69-3.26c-8.38-2.79-14.17-6.16-17.37-10.11s-4.8-8.83-4.8-14.67c0-8.13,3.09-14.54,9.27-19.23s14.33-7.03,24.45-7.03c9.44,0,18.01,1.37,25.71,4.1-1.74,7.08-3.32,14.56-4.75,22.45l-3.54.65-5.96-17.79Z"/>
      <path class="cls-7" d="m454.97,57.28c-.37,20.99-.56,37.91-.56,50.76,0,6.46.96,10.91,2.89,13.37,1.92,2.45,5.59,3.68,10.99,3.68,4.28,0,9.87-.56,16.76-1.68l.56,4.19c-10.74,5.4-20.33,8.1-28.78,8.1-6.88,0-12-1.82-15.37-5.45-3.35-3.63-5.03-9.11-5.03-16.44,0-12.05.22-31.08.65-57.09l-12.85-3.17-.56-3.82,14.36-1.21,6.57-22.54c3.55-.93,6.8-1.83,9.72-2.7l.93.65c-.19,7.51-.28,14.53-.28,21.05v3.45h28.03v8.85h-28.03Z"/>
    </g>
  </g>
  <g id="Layer_2" data-name="Layer 2">
    <path class="cls-3" d="m140.28,213.17c-8.8-22.14-17.61-44.28-26.41-66.41l-24.74,8.74,21.43,68.18,29.72-10.5Z"/>
    <path class="cls-3" d="m125.95,220.28l14.86-5.22c2.86,8.15-1.49,17.21-9.64,20.08-8.15,2.86-17.21-1.49-20.08-9.64l14.86-5.22Z"/>
    <g>
      <path class="cls-5" d="m100.51,149.04l-12.38,4.36c-2.04-5.81,1.86-12.56,8.65-14.95,6.79-2.39,14.06.43,16.11,6.24l-12.38,4.36Z"/>
      <path class="cls-5" d="m101.95,140.62l-7.77,2.68-2.68-7.77c1.26-.37,2.6-.81,4-1.33,1.32-.49,2.55-1.01,3.68-1.53.92,2.65,1.85,5.3,2.77,7.96Z"/>
    </g>
  </g>
</svg>